<mxfile host="app.diagrams.net" agent="Mozilla/5.0 (Windows NT 10.0; Win64; x64) AppleWebKit/537.36 (KHTML, like Gecko) Chrome/131.0.0.0 Safari/537.36" version="25.0.3" pages="6">
  <diagram name="EISCAT Processing" id="vpAQeuuepa6LHZu7XIrV">
    <mxGraphModel dx="1039" dy="1139" grid="1" gridSize="10" guides="1" tooltips="1" connect="1" arrows="1" fold="1" page="1" pageScale="1" pageWidth="850" pageHeight="1100" math="0" shadow="0">
      <root>
        <mxCell id="0" />
        <mxCell id="1" parent="0" />
        <mxCell id="wRicpJEv08yslmhTiQSz-5" value="" style="shape=corner;direction=west;whiteSpace=wrap;html=0;dx=610;dy=280;fillColor=#F5F5F5;perimeterSpacing=0;rounded=1;arcSize=25;dashed=0;" parent="1" vertex="1">
          <mxGeometry y="100" width="480" height="280" as="geometry" />
        </mxCell>
        <mxCell id="G_y3Sy60X6wlUuwy7vFP-1" style="edgeStyle=orthogonalEdgeStyle;rounded=0;orthogonalLoop=1;jettySize=auto;html=1;entryX=0;entryY=0.5;entryDx=0;entryDy=0;exitX=1;exitY=0.5;exitDx=0;exitDy=0;exitPerimeter=0;strokeWidth=2;" parent="1" source="UM4MiDZ-RuJinRK7bPse-10" target="f6m9y0HB9bK0rJKeD8JJ-3" edge="1">
          <mxGeometry relative="1" as="geometry" />
        </mxCell>
        <mxCell id="UM4MiDZ-RuJinRK7bPse-10" value="EISCAT" style="shape=cylinder3;whiteSpace=wrap;html=1;boundedLbl=1;backgroundOutline=1;size=15;" parent="1" vertex="1">
          <mxGeometry x="50" width="80" height="80" as="geometry" />
        </mxCell>
        <mxCell id="f6m9y0HB9bK0rJKeD8JJ-6" value="read_EISCAT_data" style="rounded=1;whiteSpace=wrap;html=1;fillColor=#dae8fc;strokeColor=#6c8ebf;" parent="1" vertex="1">
          <mxGeometry x="30" y="130" width="120" height="60" as="geometry" />
        </mxCell>
        <mxCell id="f6m9y0HB9bK0rJKeD8JJ-9" value="data_sorting" style="rounded=1;whiteSpace=wrap;html=1;fillColor=#dae8fc;strokeColor=#6c8ebf;" parent="1" vertex="1">
          <mxGeometry x="30" y="210" width="120" height="60" as="geometry" />
        </mxCell>
        <mxCell id="f6m9y0HB9bK0rJKeD8JJ-11" value="data_filtering" style="rounded=1;whiteSpace=wrap;html=1;fillColor=#dae8fc;strokeColor=#6c8ebf;" parent="1" vertex="1">
          <mxGeometry x="30" y="290" width="120" height="60" as="geometry" />
        </mxCell>
        <mxCell id="f6m9y0HB9bK0rJKeD8JJ-12" value="data_averaging" style="rounded=1;whiteSpace=wrap;html=1;fillColor=#dae8fc;strokeColor=#6c8ebf;" parent="1" vertex="1">
          <mxGeometry x="330" y="210" width="120" height="60" as="geometry" />
        </mxCell>
        <mxCell id="f6m9y0HB9bK0rJKeD8JJ-3" value="madrigalWeb-3.2.3" style="rounded=1;whiteSpace=wrap;html=1;fillColor=#fff2cc;strokeColor=#d6b656;" parent="1" vertex="1">
          <mxGeometry x="180" y="10" width="120" height="60" as="geometry" />
        </mxCell>
        <mxCell id="UM4MiDZ-RuJinRK7bPse-22" value="main_data" style="rounded=1;whiteSpace=wrap;html=1;fillColor=#d5e8d4;strokeColor=#82b366;" parent="1" vertex="1">
          <mxGeometry x="180" y="120" width="120" height="240" as="geometry" />
        </mxCell>
        <mxCell id="UM4MiDZ-RuJinRK7bPse-18" value="&lt;span style=&quot;font-size: 14px;&quot;&gt;&lt;b&gt;Processing&lt;/b&gt;&lt;/span&gt;" style="text;html=1;align=center;verticalAlign=middle;resizable=0;points=[];autosize=1;strokeColor=none;fillColor=none;" parent="1" vertex="1">
          <mxGeometry x="379.99975694444436" y="100" width="100" height="30" as="geometry" />
        </mxCell>
        <mxCell id="G_y3Sy60X6wlUuwy7vFP-2" style="edgeStyle=orthogonalEdgeStyle;rounded=0;orthogonalLoop=1;jettySize=auto;html=1;exitX=0.5;exitY=1;exitDx=0;exitDy=0;strokeWidth=2;" parent="1" source="f6m9y0HB9bK0rJKeD8JJ-3" edge="1">
          <mxGeometry relative="1" as="geometry">
            <mxPoint x="240" y="120" as="targetPoint" />
          </mxGeometry>
        </mxCell>
        <mxCell id="G_y3Sy60X6wlUuwy7vFP-9" value="data_outlier_detection" style="rounded=1;whiteSpace=wrap;html=1;fillColor=#dae8fc;strokeColor=#6c8ebf;" parent="1" vertex="1">
          <mxGeometry x="330" y="290" width="120" height="60" as="geometry" />
        </mxCell>
        <mxCell id="G_y3Sy60X6wlUuwy7vFP-26" style="edgeStyle=orthogonalEdgeStyle;rounded=0;orthogonalLoop=1;jettySize=auto;html=1;exitX=1;exitY=0.5;exitDx=0;exitDy=0;strokeWidth=2;" parent="1" source="G_y3Sy60X6wlUuwy7vFP-10" edge="1">
          <mxGeometry relative="1" as="geometry">
            <mxPoint x="520" y="160.09756097560978" as="targetPoint" />
          </mxGeometry>
        </mxCell>
        <mxCell id="G_y3Sy60X6wlUuwy7vFP-10" value="data_quality_check" style="rounded=1;whiteSpace=wrap;html=1;fillColor=#dae8fc;strokeColor=#6c8ebf;" parent="1" vertex="1">
          <mxGeometry x="330" y="130" width="120" height="60" as="geometry" />
        </mxCell>
        <mxCell id="G_y3Sy60X6wlUuwy7vFP-11" style="edgeStyle=orthogonalEdgeStyle;rounded=0;orthogonalLoop=1;jettySize=auto;html=1;exitX=1;exitY=0.25;exitDx=0;exitDy=0;entryX=0;entryY=0.106;entryDx=0;entryDy=0;entryPerimeter=0;startArrow=classicThin;startFill=1;endArrow=none;endFill=0;" parent="1" source="f6m9y0HB9bK0rJKeD8JJ-6" target="UM4MiDZ-RuJinRK7bPse-22" edge="1">
          <mxGeometry relative="1" as="geometry" />
        </mxCell>
        <mxCell id="G_y3Sy60X6wlUuwy7vFP-14" style="edgeStyle=orthogonalEdgeStyle;rounded=0;orthogonalLoop=1;jettySize=auto;html=1;exitX=1;exitY=0.75;exitDx=0;exitDy=0;entryX=-0.001;entryY=0.232;entryDx=0;entryDy=0;entryPerimeter=0;endArrow=classicThin;endFill=1;" parent="1" source="f6m9y0HB9bK0rJKeD8JJ-6" target="UM4MiDZ-RuJinRK7bPse-22" edge="1">
          <mxGeometry relative="1" as="geometry" />
        </mxCell>
        <mxCell id="G_y3Sy60X6wlUuwy7vFP-15" style="edgeStyle=orthogonalEdgeStyle;rounded=0;orthogonalLoop=1;jettySize=auto;html=1;exitX=1;exitY=0.25;exitDx=0;exitDy=0;entryX=-0.003;entryY=0.439;entryDx=0;entryDy=0;entryPerimeter=0;startArrow=classicThin;startFill=1;endArrow=none;endFill=0;" parent="1" source="f6m9y0HB9bK0rJKeD8JJ-9" target="UM4MiDZ-RuJinRK7bPse-22" edge="1">
          <mxGeometry relative="1" as="geometry" />
        </mxCell>
        <mxCell id="G_y3Sy60X6wlUuwy7vFP-16" style="edgeStyle=orthogonalEdgeStyle;rounded=0;orthogonalLoop=1;jettySize=auto;html=1;exitX=1;exitY=0.75;exitDx=0;exitDy=0;entryX=0.001;entryY=0.565;entryDx=0;entryDy=0;entryPerimeter=0;endArrow=classicThin;endFill=1;" parent="1" source="f6m9y0HB9bK0rJKeD8JJ-9" target="UM4MiDZ-RuJinRK7bPse-22" edge="1">
          <mxGeometry relative="1" as="geometry" />
        </mxCell>
        <mxCell id="G_y3Sy60X6wlUuwy7vFP-17" style="edgeStyle=orthogonalEdgeStyle;rounded=0;orthogonalLoop=1;jettySize=auto;html=1;exitX=1;exitY=0.25;exitDx=0;exitDy=0;entryX=-0.003;entryY=0.773;entryDx=0;entryDy=0;entryPerimeter=0;startArrow=classicThin;startFill=1;endArrow=none;endFill=0;" parent="1" source="f6m9y0HB9bK0rJKeD8JJ-11" target="UM4MiDZ-RuJinRK7bPse-22" edge="1">
          <mxGeometry relative="1" as="geometry" />
        </mxCell>
        <mxCell id="G_y3Sy60X6wlUuwy7vFP-18" style="edgeStyle=orthogonalEdgeStyle;rounded=0;orthogonalLoop=1;jettySize=auto;html=1;exitX=1;exitY=0.75;exitDx=0;exitDy=0;entryX=-0.003;entryY=0.899;entryDx=0;entryDy=0;entryPerimeter=0;endArrow=classicThin;endFill=1;" parent="1" source="f6m9y0HB9bK0rJKeD8JJ-11" target="UM4MiDZ-RuJinRK7bPse-22" edge="1">
          <mxGeometry relative="1" as="geometry" />
        </mxCell>
        <mxCell id="G_y3Sy60X6wlUuwy7vFP-19" style="edgeStyle=orthogonalEdgeStyle;rounded=0;orthogonalLoop=1;jettySize=auto;html=1;exitX=0;exitY=0.75;exitDx=0;exitDy=0;entryX=1.001;entryY=0.893;entryDx=0;entryDy=0;entryPerimeter=0;endArrow=none;endFill=0;startArrow=classicThin;startFill=1;" parent="1" source="G_y3Sy60X6wlUuwy7vFP-9" target="UM4MiDZ-RuJinRK7bPse-22" edge="1">
          <mxGeometry relative="1" as="geometry" />
        </mxCell>
        <mxCell id="G_y3Sy60X6wlUuwy7vFP-20" style="edgeStyle=orthogonalEdgeStyle;rounded=0;orthogonalLoop=1;jettySize=auto;html=1;exitX=0;exitY=0.25;exitDx=0;exitDy=0;entryX=0.998;entryY=0.769;entryDx=0;entryDy=0;entryPerimeter=0;" parent="1" source="G_y3Sy60X6wlUuwy7vFP-9" target="UM4MiDZ-RuJinRK7bPse-22" edge="1">
          <mxGeometry relative="1" as="geometry" />
        </mxCell>
        <mxCell id="G_y3Sy60X6wlUuwy7vFP-21" style="edgeStyle=orthogonalEdgeStyle;rounded=0;orthogonalLoop=1;jettySize=auto;html=1;exitX=0;exitY=0.75;exitDx=0;exitDy=0;entryX=1;entryY=0.563;entryDx=0;entryDy=0;entryPerimeter=0;endArrow=none;endFill=0;startArrow=classicThin;startFill=1;" parent="1" source="f6m9y0HB9bK0rJKeD8JJ-12" target="UM4MiDZ-RuJinRK7bPse-22" edge="1">
          <mxGeometry relative="1" as="geometry" />
        </mxCell>
        <mxCell id="G_y3Sy60X6wlUuwy7vFP-22" style="edgeStyle=orthogonalEdgeStyle;rounded=0;orthogonalLoop=1;jettySize=auto;html=1;exitX=0;exitY=0.25;exitDx=0;exitDy=0;entryX=1;entryY=0.44;entryDx=0;entryDy=0;entryPerimeter=0;" parent="1" source="f6m9y0HB9bK0rJKeD8JJ-12" target="UM4MiDZ-RuJinRK7bPse-22" edge="1">
          <mxGeometry relative="1" as="geometry" />
        </mxCell>
        <mxCell id="G_y3Sy60X6wlUuwy7vFP-25" style="edgeStyle=orthogonalEdgeStyle;rounded=0;orthogonalLoop=1;jettySize=auto;html=1;exitX=0;exitY=0.5;exitDx=0;exitDy=0;entryX=1.003;entryY=0.168;entryDx=0;entryDy=0;entryPerimeter=0;endArrow=none;endFill=0;startArrow=classic;startFill=1;strokeWidth=2;" parent="1" source="G_y3Sy60X6wlUuwy7vFP-10" target="UM4MiDZ-RuJinRK7bPse-22" edge="1">
          <mxGeometry relative="1" as="geometry" />
        </mxCell>
        <mxCell id="G_y3Sy60X6wlUuwy7vFP-29" value="" style="endArrow=none;dashed=1;html=1;rounded=0;entryX=0.5;entryY=0;entryDx=0;entryDy=0;exitX=0;exitY=0.104;exitDx=0;exitDy=0;exitPerimeter=0;" parent="1" source="UM4MiDZ-RuJinRK7bPse-22" target="UM4MiDZ-RuJinRK7bPse-22" edge="1">
          <mxGeometry width="50" height="50" relative="1" as="geometry">
            <mxPoint x="210" y="250" as="sourcePoint" />
            <mxPoint x="260" y="200" as="targetPoint" />
            <Array as="points">
              <mxPoint x="240" y="145" />
            </Array>
          </mxGeometry>
        </mxCell>
        <mxCell id="G_y3Sy60X6wlUuwy7vFP-31" value="" style="endArrow=none;dashed=1;html=1;rounded=0;entryX=0.001;entryY=0.229;entryDx=0;entryDy=0;exitX=0;exitY=0.104;exitDx=0;exitDy=0;exitPerimeter=0;entryPerimeter=0;" parent="1" target="UM4MiDZ-RuJinRK7bPse-22" edge="1">
          <mxGeometry width="50" height="50" relative="1" as="geometry">
            <mxPoint x="180" y="225" as="sourcePoint" />
            <mxPoint x="240" y="200" as="targetPoint" />
            <Array as="points">
              <mxPoint x="190" y="225" />
              <mxPoint x="190" y="175" />
            </Array>
          </mxGeometry>
        </mxCell>
        <mxCell id="G_y3Sy60X6wlUuwy7vFP-33" value="" style="endArrow=none;dashed=1;html=1;rounded=0;entryX=0;entryY=0.563;entryDx=0;entryDy=0;exitX=0;exitY=0.104;exitDx=0;exitDy=0;exitPerimeter=0;entryPerimeter=0;" parent="1" target="UM4MiDZ-RuJinRK7bPse-22" edge="1">
          <mxGeometry width="50" height="50" relative="1" as="geometry">
            <mxPoint x="180" y="305" as="sourcePoint" />
            <mxPoint x="240" y="280" as="targetPoint" />
            <Array as="points">
              <mxPoint x="190" y="305" />
              <mxPoint x="190" y="255" />
            </Array>
          </mxGeometry>
        </mxCell>
        <mxCell id="G_y3Sy60X6wlUuwy7vFP-34" value="" style="endArrow=none;dashed=1;html=1;rounded=0;exitX=-0.003;exitY=0.896;exitDx=0;exitDy=0;exitPerimeter=0;entryX=1;entryY=0.896;entryDx=0;entryDy=0;entryPerimeter=0;" parent="1" source="UM4MiDZ-RuJinRK7bPse-22" target="UM4MiDZ-RuJinRK7bPse-22" edge="1">
          <mxGeometry width="50" height="50" relative="1" as="geometry">
            <mxPoint x="215" y="330" as="sourcePoint" />
            <mxPoint x="265" y="280" as="targetPoint" />
          </mxGeometry>
        </mxCell>
        <mxCell id="G_y3Sy60X6wlUuwy7vFP-35" value="" style="endArrow=none;dashed=1;html=1;rounded=0;entryX=1.003;entryY=0.771;entryDx=0;entryDy=0;entryPerimeter=0;" parent="1" target="UM4MiDZ-RuJinRK7bPse-22" edge="1">
          <mxGeometry width="50" height="50" relative="1" as="geometry">
            <mxPoint x="300" y="255" as="sourcePoint" />
            <mxPoint x="280" y="290" as="targetPoint" />
            <Array as="points">
              <mxPoint x="290" y="255" />
              <mxPoint x="290" y="305" />
            </Array>
          </mxGeometry>
        </mxCell>
        <mxCell id="G_y3Sy60X6wlUuwy7vFP-37" value="" style="endArrow=none;dashed=1;html=1;rounded=0;entryX=1.002;entryY=0.438;entryDx=0;entryDy=0;exitX=1.004;exitY=0.167;exitDx=0;exitDy=0;exitPerimeter=0;entryPerimeter=0;" parent="1" source="UM4MiDZ-RuJinRK7bPse-22" target="UM4MiDZ-RuJinRK7bPse-22" edge="1">
          <mxGeometry width="50" height="50" relative="1" as="geometry">
            <mxPoint x="210" y="225" as="sourcePoint" />
            <mxPoint x="270" y="200" as="targetPoint" />
            <Array as="points">
              <mxPoint x="290" y="160" />
              <mxPoint x="290" y="225" />
            </Array>
          </mxGeometry>
        </mxCell>
      </root>
    </mxGraphModel>
  </diagram>
  <diagram id="g6qjLvW_p-U2TNVgx01g" name="Ionogram Processing">
    <mxGraphModel dx="875" dy="471" grid="1" gridSize="10" guides="1" tooltips="1" connect="1" arrows="1" fold="1" page="1" pageScale="1" pageWidth="827" pageHeight="1169" math="0" shadow="0">
      <root>
        <mxCell id="0" />
        <mxCell id="1" parent="0" />
        <mxCell id="hjzWuoM4SgferwgUHGIs-1" value="" style="shape=corner;direction=west;whiteSpace=wrap;html=0;dx=610;dy=280;fillColor=#F5F5F5;perimeterSpacing=0;rounded=1;arcSize=25;dashed=0;" parent="1" vertex="1">
          <mxGeometry y="100" width="350" height="210" as="geometry" />
        </mxCell>
        <mxCell id="hjzWuoM4SgferwgUHGIs-2" style="edgeStyle=orthogonalEdgeStyle;rounded=0;orthogonalLoop=1;jettySize=auto;html=1;entryX=0;entryY=0.5;entryDx=0;entryDy=0;exitX=1;exitY=0.5;exitDx=0;exitDy=0;exitPerimeter=0;strokeWidth=2;" parent="1" source="hjzWuoM4SgferwgUHGIs-3" target="hjzWuoM4SgferwgUHGIs-8" edge="1">
          <mxGeometry relative="1" as="geometry" />
        </mxCell>
        <mxCell id="iy7UHXxNIVFuLLu1yQHI-6" value="&amp;nbsp;.GRM&amp;nbsp;" style="edgeLabel;html=1;align=center;verticalAlign=middle;resizable=0;points=[];labelBorderColor=default;" vertex="1" connectable="0" parent="hjzWuoM4SgferwgUHGIs-2">
          <mxGeometry x="-0.1034" y="1" relative="1" as="geometry">
            <mxPoint as="offset" />
          </mxGeometry>
        </mxCell>
        <mxCell id="hjzWuoM4SgferwgUHGIs-3" value="TGO" style="shape=cylinder3;whiteSpace=wrap;html=1;boundedLbl=1;backgroundOutline=1;size=15;" parent="1" vertex="1">
          <mxGeometry x="40" width="80" height="80" as="geometry" />
        </mxCell>
        <mxCell id="hjzWuoM4SgferwgUHGIs-8" value="SAO-Explorer&lt;div&gt;(Artist)&lt;/div&gt;" style="rounded=1;whiteSpace=wrap;html=1;fillColor=#fff2cc;strokeColor=#d6b656;" parent="1" vertex="1">
          <mxGeometry x="210" y="10" width="120" height="60" as="geometry" />
        </mxCell>
        <mxCell id="hjzWuoM4SgferwgUHGIs-9" value="&amp;nbsp; &amp;nbsp; &amp;nbsp; main_ionogram" style="rounded=1;whiteSpace=wrap;html=1;fillColor=#d5e8d4;strokeColor=#82b366;" parent="1" vertex="1">
          <mxGeometry x="210" y="130" width="120" height="160" as="geometry" />
        </mxCell>
        <mxCell id="hjzWuoM4SgferwgUHGIs-10" value="&lt;span style=&quot;font-size: 14px;&quot;&gt;&lt;b&gt;Ionogram&lt;/b&gt;&lt;/span&gt;" style="text;html=1;align=center;verticalAlign=middle;resizable=0;points=[];autosize=1;strokeColor=none;fillColor=none;" parent="1" vertex="1">
          <mxGeometry x="-0.0002430555556429681" y="100" width="90" height="30" as="geometry" />
        </mxCell>
        <mxCell id="hjzWuoM4SgferwgUHGIs-11" style="edgeStyle=orthogonalEdgeStyle;rounded=0;orthogonalLoop=1;jettySize=auto;html=1;exitX=0.5;exitY=1;exitDx=0;exitDy=0;strokeWidth=2;entryX=0.5;entryY=0;entryDx=0;entryDy=0;" parent="1" source="hjzWuoM4SgferwgUHGIs-8" target="hjzWuoM4SgferwgUHGIs-9" edge="1">
          <mxGeometry relative="1" as="geometry">
            <mxPoint x="240" y="120" as="targetPoint" />
          </mxGeometry>
        </mxCell>
        <mxCell id="iy7UHXxNIVFuLLu1yQHI-7" value="&amp;nbsp;.txt&amp;nbsp;" style="edgeLabel;html=1;align=center;verticalAlign=middle;resizable=0;points=[];labelBorderColor=default;" vertex="1" connectable="0" parent="hjzWuoM4SgferwgUHGIs-11">
          <mxGeometry x="-0.3103" y="1" relative="1" as="geometry">
            <mxPoint as="offset" />
          </mxGeometry>
        </mxCell>
        <mxCell id="TSdlfaA212EjdF7iAowS-1" value="ionogram_sorting" style="rounded=1;whiteSpace=wrap;html=1;fillColor=#dae8fc;strokeColor=#6c8ebf;" parent="1" vertex="1">
          <mxGeometry x="20" y="140" width="120" height="60" as="geometry" />
        </mxCell>
        <mxCell id="TSdlfaA212EjdF7iAowS-2" value="process_ionograms" style="rounded=1;whiteSpace=wrap;html=1;fillColor=#dae8fc;strokeColor=#6c8ebf;" parent="1" vertex="1">
          <mxGeometry x="20" y="220" width="120" height="60" as="geometry" />
        </mxCell>
        <mxCell id="emVLlOL60y-7XCjgJ0lL-1" style="edgeStyle=orthogonalEdgeStyle;rounded=0;orthogonalLoop=1;jettySize=auto;html=1;exitX=1;exitY=0.25;exitDx=0;exitDy=0;entryX=0;entryY=0.156;entryDx=0;entryDy=0;entryPerimeter=0;startArrow=classicThin;startFill=1;endArrow=none;endFill=0;" parent="1" source="TSdlfaA212EjdF7iAowS-1" target="hjzWuoM4SgferwgUHGIs-9" edge="1">
          <mxGeometry relative="1" as="geometry" />
        </mxCell>
        <mxCell id="emVLlOL60y-7XCjgJ0lL-2" style="edgeStyle=orthogonalEdgeStyle;rounded=0;orthogonalLoop=1;jettySize=auto;html=1;exitX=1;exitY=0.75;exitDx=0;exitDy=0;entryX=0;entryY=0.345;entryDx=0;entryDy=0;entryPerimeter=0;endArrow=classicThin;endFill=1;" parent="1" source="TSdlfaA212EjdF7iAowS-1" target="hjzWuoM4SgferwgUHGIs-9" edge="1">
          <mxGeometry relative="1" as="geometry" />
        </mxCell>
        <mxCell id="iy7UHXxNIVFuLLu1yQHI-11" value="&amp;nbsp;numpy&amp;nbsp;&lt;div&gt;ndarray&lt;/div&gt;" style="edgeLabel;html=1;align=center;verticalAlign=middle;resizable=0;points=[];labelBorderColor=default;" vertex="1" connectable="0" parent="emVLlOL60y-7XCjgJ0lL-2">
          <mxGeometry x="-0.1259" y="-2" relative="1" as="geometry">
            <mxPoint as="offset" />
          </mxGeometry>
        </mxCell>
        <mxCell id="emVLlOL60y-7XCjgJ0lL-3" style="edgeStyle=orthogonalEdgeStyle;rounded=0;orthogonalLoop=1;jettySize=auto;html=1;exitX=1;exitY=0.5;exitDx=0;exitDy=0;entryX=0;entryY=0.75;entryDx=0;entryDy=0;startArrow=classicThin;startFill=1;endArrow=none;endFill=0;" parent="1" source="TSdlfaA212EjdF7iAowS-2" target="hjzWuoM4SgferwgUHGIs-9" edge="1">
          <mxGeometry relative="1" as="geometry" />
        </mxCell>
        <mxCell id="emVLlOL60y-7XCjgJ0lL-4" style="edgeStyle=orthogonalEdgeStyle;rounded=0;orthogonalLoop=1;jettySize=auto;html=1;exitX=0.5;exitY=1;exitDx=0;exitDy=0;endArrow=classic;endFill=1;strokeWidth=2;" parent="1" source="TSdlfaA212EjdF7iAowS-2" edge="1">
          <mxGeometry relative="1" as="geometry">
            <mxPoint x="80" y="360" as="targetPoint" />
          </mxGeometry>
        </mxCell>
        <mxCell id="iy7UHXxNIVFuLLu1yQHI-14" value="&amp;nbsp;.png&amp;nbsp;" style="edgeLabel;html=1;align=center;verticalAlign=middle;resizable=0;points=[];labelBorderColor=default;" vertex="1" connectable="0" parent="emVLlOL60y-7XCjgJ0lL-4">
          <mxGeometry x="0.0604" y="-1" relative="1" as="geometry">
            <mxPoint as="offset" />
          </mxGeometry>
        </mxCell>
        <mxCell id="DyAe56i8V4rLQI1fywjL-1" value="" style="endArrow=none;dashed=1;html=1;rounded=0;entryX=0.5;entryY=0;entryDx=0;entryDy=0;exitX=-0.001;exitY=0.156;exitDx=0;exitDy=0;exitPerimeter=0;" parent="1" source="hjzWuoM4SgferwgUHGIs-9" target="hjzWuoM4SgferwgUHGIs-9" edge="1">
          <mxGeometry width="50" height="50" relative="1" as="geometry">
            <mxPoint x="190" y="190" as="sourcePoint" />
            <mxPoint x="240" y="140" as="targetPoint" />
            <Array as="points">
              <mxPoint x="270" y="155" />
            </Array>
          </mxGeometry>
        </mxCell>
        <mxCell id="Y2Bo-996jRw4KHNwekKt-1" value="" style="endArrow=none;dashed=1;html=1;rounded=0;exitX=0;exitY=0.75;exitDx=0;exitDy=0;entryX=0;entryY=0.344;entryDx=0;entryDy=0;entryPerimeter=0;" parent="1" source="hjzWuoM4SgferwgUHGIs-9" target="hjzWuoM4SgferwgUHGIs-9" edge="1">
          <mxGeometry width="50" height="50" relative="1" as="geometry">
            <mxPoint x="249.82" y="234.96000000000004" as="sourcePoint" />
            <mxPoint x="249.94" y="185.2" as="targetPoint" />
            <Array as="points">
              <mxPoint x="230" y="250" />
              <mxPoint x="230.06" y="185" />
            </Array>
          </mxGeometry>
        </mxCell>
        <mxCell id="iy7UHXxNIVFuLLu1yQHI-15" value="" style="group" vertex="1" connectable="0" parent="1">
          <mxGeometry x="47.04000000000002" y="355" width="65.93" height="60" as="geometry" />
        </mxCell>
        <mxCell id="iy7UHXxNIVFuLLu1yQHI-1" value="" style="sketch=0;outlineConnect=0;fontColor=#232F3E;gradientColor=none;fillColor=#232F3D;strokeColor=none;dashed=0;verticalLabelPosition=bottom;verticalAlign=top;align=center;html=1;fontSize=12;fontStyle=0;aspect=fixed;pointerEvents=1;shape=mxgraph.aws4.folder;" vertex="1" parent="iy7UHXxNIVFuLLu1yQHI-15">
          <mxGeometry width="65.93" height="60" as="geometry" />
        </mxCell>
        <mxCell id="iy7UHXxNIVFuLLu1yQHI-5" value="Ionogram Images" style="text;html=1;align=center;verticalAlign=middle;whiteSpace=wrap;rounded=0;" vertex="1" parent="iy7UHXxNIVFuLLu1yQHI-15">
          <mxGeometry x="2.9599999999999795" y="20" width="60" height="30" as="geometry" />
        </mxCell>
      </root>
    </mxGraphModel>
  </diagram>
  <diagram id="G-4e0hg69EotMGAiMszP" name="Dict_Format">
    <mxGraphModel dx="591" dy="317" grid="1" gridSize="10" guides="1" tooltips="1" connect="1" arrows="1" fold="1" page="1" pageScale="1" pageWidth="827" pageHeight="1169" math="0" shadow="0">
      <root>
        <mxCell id="0" />
        <mxCell id="1" parent="0" />
        <mxCell id="T_N09maaO35sAkpeYgeP-3" value="{&quot;yyyy_mm_dd&quot; :" style="text;html=1;align=center;verticalAlign=middle;whiteSpace=wrap;rounded=0;" vertex="1" parent="1">
          <mxGeometry x="80" y="90" width="160" height="30" as="geometry" />
        </mxCell>
        <mxCell id="T_N09maaO35sAkpeYgeP-4" value="" style="endArrow=classic;html=1;rounded=0;exitX=0.5;exitY=1;exitDx=0;exitDy=0;edgeStyle=orthogonalEdgeStyle;entryX=0;entryY=0.5;entryDx=0;entryDy=0;" edge="1" parent="1" source="T_N09maaO35sAkpeYgeP-3" target="T_N09maaO35sAkpeYgeP-5">
          <mxGeometry width="50" height="50" relative="1" as="geometry">
            <mxPoint x="270" y="330" as="sourcePoint" />
            <mxPoint x="200" y="150" as="targetPoint" />
            <Array as="points">
              <mxPoint x="160" y="155" />
            </Array>
          </mxGeometry>
        </mxCell>
        <mxCell id="T_N09maaO35sAkpeYgeP-5" value="&quot;r_h&quot;:" style="text;html=1;align=center;verticalAlign=middle;whiteSpace=wrap;rounded=0;" vertex="1" parent="1">
          <mxGeometry x="210" y="140" width="60" height="30" as="geometry" />
        </mxCell>
        <mxCell id="T_N09maaO35sAkpeYgeP-6" value="" style="endArrow=classic;html=1;rounded=0;edgeStyle=orthogonalEdgeStyle;" edge="1" parent="1">
          <mxGeometry width="50" height="50" relative="1" as="geometry">
            <mxPoint x="160" y="150" as="sourcePoint" />
            <mxPoint x="210" y="180" as="targetPoint" />
            <Array as="points">
              <mxPoint x="160" y="180" />
              <mxPoint x="210" y="180" />
            </Array>
          </mxGeometry>
        </mxCell>
        <mxCell id="T_N09maaO35sAkpeYgeP-7" value="&quot;r_h&quot;:" style="text;html=1;align=center;verticalAlign=middle;whiteSpace=wrap;rounded=0;" vertex="1" parent="1">
          <mxGeometry x="220" y="150" width="60" height="30" as="geometry" />
        </mxCell>
      </root>
    </mxGraphModel>
  </diagram>
  <diagram id="ySQ_wgVFWgVSXs2FqHZt" name="Artist Processing">
    <mxGraphModel dx="1152" dy="633" grid="1" gridSize="5" guides="1" tooltips="1" connect="1" arrows="1" fold="1" page="1" pageScale="1" pageWidth="827" pageHeight="1169" math="0" shadow="0">
      <root>
        <mxCell id="0" />
        <mxCell id="1" parent="0" />
        <mxCell id="ZRyfYpXTvTUm9nF39cHc-4" value="" style="group" vertex="1" connectable="0" parent="1">
          <mxGeometry y="100" width="480" height="300" as="geometry" />
        </mxCell>
        <mxCell id="ZRyfYpXTvTUm9nF39cHc-2" value="" style="shape=corner;direction=east;whiteSpace=wrap;html=0;dx=160;dy=200;fillColor=#F5F5F5;perimeterSpacing=0;rounded=1;arcSize=25;dashed=0;" vertex="1" parent="ZRyfYpXTvTUm9nF39cHc-4">
          <mxGeometry x="160" width="320" height="300" as="geometry" />
        </mxCell>
        <mxCell id="ZRyfYpXTvTUm9nF39cHc-3" value="" style="shape=corner;direction=south;whiteSpace=wrap;html=0;dx=200;dy=160;fillColor=#F5F5F5;perimeterSpacing=0;rounded=1;arcSize=25;dashed=0;" vertex="1" parent="ZRyfYpXTvTUm9nF39cHc-4">
          <mxGeometry width="320" height="300" as="geometry" />
        </mxCell>
        <mxCell id="ZRyfYpXTvTUm9nF39cHc-10" value="" style="endArrow=none;html=1;rounded=0;strokeColor=#f5f5f5;strokeWidth=2;" edge="1" parent="ZRyfYpXTvTUm9nF39cHc-4">
          <mxGeometry width="50" height="50" relative="1" as="geometry">
            <mxPoint x="320" y="205" as="sourcePoint" />
            <mxPoint x="320" y="5" as="targetPoint" />
          </mxGeometry>
        </mxCell>
        <mxCell id="ZRyfYpXTvTUm9nF39cHc-11" value="" style="endArrow=none;html=1;rounded=0;exitX=0.005;exitY=0.067;exitDx=0;exitDy=0;exitPerimeter=0;strokeColor=#f5f5f5;strokeWidth=2;entryX=0.005;entryY=0.017;entryDx=0;entryDy=0;entryPerimeter=0;" edge="1" parent="ZRyfYpXTvTUm9nF39cHc-4" source="ZRyfYpXTvTUm9nF39cHc-3" target="ZRyfYpXTvTUm9nF39cHc-3">
          <mxGeometry width="50" height="50" relative="1" as="geometry">
            <mxPoint x="300.0000000000001" y="5.000000000000159" as="sourcePoint" />
            <mxPoint x="313.44000000000005" y="5.000000000000159" as="targetPoint" />
          </mxGeometry>
        </mxCell>
        <mxCell id="ZRyfYpXTvTUm9nF39cHc-12" value="" style="endArrow=none;html=1;rounded=0;strokeColor=#f5f5f5;strokeWidth=1;entryX=0.693;entryY=0.006;entryDx=0;entryDy=0;entryPerimeter=0;exitX=0.514;exitY=0.666;exitDx=0;exitDy=0;exitPerimeter=0;" edge="1" parent="ZRyfYpXTvTUm9nF39cHc-4" source="ZRyfYpXTvTUm9nF39cHc-2" target="ZRyfYpXTvTUm9nF39cHc-3">
          <mxGeometry width="50" height="50" relative="1" as="geometry">
            <mxPoint x="320" y="200" as="sourcePoint" />
            <mxPoint x="320" y="205" as="targetPoint" />
          </mxGeometry>
        </mxCell>
        <mxCell id="ZRyfYpXTvTUm9nF39cHc-13" value="" style="endArrow=none;html=1;rounded=0;strokeColor=#f5f5f5;strokeWidth=2;exitX=0.676;exitY=-0.003;exitDx=0;exitDy=0;exitPerimeter=0;entryX=0.692;entryY=0.004;entryDx=0;entryDy=0;entryPerimeter=0;" edge="1" parent="ZRyfYpXTvTUm9nF39cHc-4" source="ZRyfYpXTvTUm9nF39cHc-3" target="ZRyfYpXTvTUm9nF39cHc-3">
          <mxGeometry width="50" height="50" relative="1" as="geometry">
            <mxPoint x="321" y="205" as="sourcePoint" />
            <mxPoint x="319" y="208" as="targetPoint" />
          </mxGeometry>
        </mxCell>
        <mxCell id="ZRyfYpXTvTUm9nF39cHc-14" value="" style="endArrow=none;html=1;rounded=0;strokeColor=#f5f5f5;strokeWidth=2;exitX=0.498;exitY=0.683;exitDx=0;exitDy=0;exitPerimeter=0;entryX=0.713;entryY=0.006;entryDx=0;entryDy=0;entryPerimeter=0;" edge="1" parent="ZRyfYpXTvTUm9nF39cHc-4" source="ZRyfYpXTvTUm9nF39cHc-2" target="ZRyfYpXTvTUm9nF39cHc-3">
          <mxGeometry width="50" height="50" relative="1" as="geometry">
            <mxPoint x="317" y="208" as="sourcePoint" />
            <mxPoint x="315" y="213" as="targetPoint" />
          </mxGeometry>
        </mxCell>
        <mxCell id="ZRyfYpXTvTUm9nF39cHc-15" value="" style="endArrow=none;html=1;rounded=0;strokeColor=#f5f5f5;strokeWidth=2;exitX=0.005;exitY=0.019;exitDx=0;exitDy=0;exitPerimeter=0;" edge="1" parent="ZRyfYpXTvTUm9nF39cHc-4" source="ZRyfYpXTvTUm9nF39cHc-3">
          <mxGeometry width="50" height="50" relative="1" as="geometry">
            <mxPoint x="321" y="5" as="sourcePoint" />
            <mxPoint x="320" y="5" as="targetPoint" />
          </mxGeometry>
        </mxCell>
        <mxCell id="ZRyfYpXTvTUm9nF39cHc-16" value="" style="endArrow=none;html=1;rounded=0;strokeColor=#f5f5f5;strokeWidth=2;exitX=0.012;exitY=0.01;exitDx=0;exitDy=0;exitPerimeter=0;entryX=0.027;entryY=0.002;entryDx=0;entryDy=0;entryPerimeter=0;" edge="1" parent="ZRyfYpXTvTUm9nF39cHc-4" source="ZRyfYpXTvTUm9nF39cHc-3" target="ZRyfYpXTvTUm9nF39cHc-3">
          <mxGeometry width="50" height="50" relative="1" as="geometry">
            <mxPoint x="319" y="7" as="sourcePoint" />
            <mxPoint x="325" y="10" as="targetPoint" />
          </mxGeometry>
        </mxCell>
        <mxCell id="ZRyfYpXTvTUm9nF39cHc-1" value="artist_plotting" style="rounded=1;whiteSpace=wrap;html=1;fillColor=#dae8fc;strokeColor=#6c8ebf;" vertex="1" parent="ZRyfYpXTvTUm9nF39cHc-4">
          <mxGeometry x="340" y="120" width="120" height="60" as="geometry" />
        </mxCell>
        <mxCell id="ZRyfYpXTvTUm9nF39cHc-23" value="" style="endArrow=none;html=1;rounded=0;entryX=0;entryY=0.75;entryDx=0;entryDy=0;endFill=0;startArrow=classicThin;startFill=1;" edge="1" parent="ZRyfYpXTvTUm9nF39cHc-4">
          <mxGeometry width="50" height="50" relative="1" as="geometry">
            <mxPoint x="300" y="135" as="sourcePoint" />
            <mxPoint x="340" y="135" as="targetPoint" />
          </mxGeometry>
        </mxCell>
        <mxCell id="B_zwBAlqrdP_tBHMgXyy-2" value="" style="endArrow=classic;html=1;rounded=0;exitX=1;exitY=0.75;exitDx=0;exitDy=0;strokeWidth=2;" parent="ZRyfYpXTvTUm9nF39cHc-4" edge="1">
          <mxGeometry width="50" height="50" relative="1" as="geometry">
            <mxPoint x="300" y="70" as="sourcePoint" />
            <mxPoint x="350" y="70" as="targetPoint" />
          </mxGeometry>
        </mxCell>
        <mxCell id="1X2vrrEtw_FdGBczlT2r-2" style="edgeStyle=orthogonalEdgeStyle;rounded=0;orthogonalLoop=1;jettySize=auto;html=1;entryX=0;entryY=0.5;entryDx=0;entryDy=0;exitX=1;exitY=0.5;exitDx=0;exitDy=0;exitPerimeter=0;strokeWidth=2;" parent="1" source="1X2vrrEtw_FdGBczlT2r-3" target="1X2vrrEtw_FdGBczlT2r-4" edge="1">
          <mxGeometry relative="1" as="geometry" />
        </mxCell>
        <mxCell id="1X2vrrEtw_FdGBczlT2r-3" value="TGO" style="shape=cylinder3;whiteSpace=wrap;html=1;boundedLbl=1;backgroundOutline=1;size=15;" parent="1" vertex="1">
          <mxGeometry x="40" width="80" height="80" as="geometry" />
        </mxCell>
        <mxCell id="1X2vrrEtw_FdGBczlT2r-4" value="SAO-Explorer&lt;div&gt;(Artist 4.5)&lt;/div&gt;" style="rounded=1;whiteSpace=wrap;html=1;fillColor=#fff2cc;strokeColor=#d6b656;" parent="1" vertex="1">
          <mxGeometry x="180" y="10" width="120" height="60" as="geometry" />
        </mxCell>
        <mxCell id="1X2vrrEtw_FdGBczlT2r-5" value="main_artist" style="rounded=1;whiteSpace=wrap;html=1;fillColor=#d5e8d4;strokeColor=#82b366;" parent="1" vertex="1">
          <mxGeometry x="180" y="130" width="120" height="160" as="geometry" />
        </mxCell>
        <mxCell id="1X2vrrEtw_FdGBczlT2r-6" value="&lt;span style=&quot;font-size: 14px;&quot;&gt;&lt;b&gt;Artist&lt;/b&gt;&lt;/span&gt;" style="text;html=1;align=center;verticalAlign=middle;resizable=0;points=[];autosize=1;strokeColor=none;fillColor=none;" parent="1" vertex="1">
          <mxGeometry x="14.999756944444357" y="100" width="60" height="30" as="geometry" />
        </mxCell>
        <mxCell id="1X2vrrEtw_FdGBczlT2r-7" style="edgeStyle=orthogonalEdgeStyle;rounded=0;orthogonalLoop=1;jettySize=auto;html=1;exitX=0.5;exitY=1;exitDx=0;exitDy=0;strokeWidth=2;entryX=0.5;entryY=0;entryDx=0;entryDy=0;" parent="1" source="1X2vrrEtw_FdGBczlT2r-4" target="1X2vrrEtw_FdGBczlT2r-5" edge="1">
          <mxGeometry relative="1" as="geometry">
            <mxPoint x="240" y="120" as="targetPoint" />
          </mxGeometry>
        </mxCell>
        <mxCell id="1X2vrrEtw_FdGBczlT2r-8" value="artist_utils" style="rounded=1;whiteSpace=wrap;html=1;fillColor=#dae8fc;strokeColor=#6c8ebf;" parent="1" vertex="1">
          <mxGeometry x="20" y="140" width="120" height="60" as="geometry" />
        </mxCell>
        <mxCell id="1X2vrrEtw_FdGBczlT2r-9" value="artist_sorting" style="rounded=1;whiteSpace=wrap;html=1;fillColor=#dae8fc;strokeColor=#6c8ebf;" parent="1" vertex="1">
          <mxGeometry x="20" y="220" width="120" height="60" as="geometry" />
        </mxCell>
        <mxCell id="1X2vrrEtw_FdGBczlT2r-10" style="edgeStyle=orthogonalEdgeStyle;rounded=0;orthogonalLoop=1;jettySize=auto;html=1;exitX=1;exitY=0.25;exitDx=0;exitDy=0;entryX=0;entryY=0.156;entryDx=0;entryDy=0;entryPerimeter=0;startArrow=classicThin;startFill=1;endArrow=none;endFill=0;" parent="1" source="1X2vrrEtw_FdGBczlT2r-8" target="1X2vrrEtw_FdGBczlT2r-5" edge="1">
          <mxGeometry relative="1" as="geometry" />
        </mxCell>
        <mxCell id="1X2vrrEtw_FdGBczlT2r-11" style="edgeStyle=orthogonalEdgeStyle;rounded=0;orthogonalLoop=1;jettySize=auto;html=1;exitX=1;exitY=0.75;exitDx=0;exitDy=0;entryX=-0.001;entryY=0.342;entryDx=0;entryDy=0;entryPerimeter=0;endArrow=classicThin;endFill=1;" parent="1" source="1X2vrrEtw_FdGBczlT2r-8" target="1X2vrrEtw_FdGBczlT2r-5" edge="1">
          <mxGeometry relative="1" as="geometry" />
        </mxCell>
        <mxCell id="1X2vrrEtw_FdGBczlT2r-12" style="edgeStyle=orthogonalEdgeStyle;rounded=0;orthogonalLoop=1;jettySize=auto;html=1;exitX=1;exitY=0.25;exitDx=0;exitDy=0;entryX=-0.003;entryY=0.657;entryDx=0;entryDy=0;entryPerimeter=0;startArrow=classicThin;startFill=1;endArrow=none;endFill=0;" parent="1" source="1X2vrrEtw_FdGBczlT2r-9" target="1X2vrrEtw_FdGBczlT2r-5" edge="1">
          <mxGeometry relative="1" as="geometry" />
        </mxCell>
        <mxCell id="1X2vrrEtw_FdGBczlT2r-13" style="edgeStyle=orthogonalEdgeStyle;rounded=0;orthogonalLoop=1;jettySize=auto;html=1;exitX=1;exitY=0.75;exitDx=0;exitDy=0;entryX=-0.001;entryY=0.842;entryDx=0;entryDy=0;entryPerimeter=0;endArrow=classicThin;endFill=1;" parent="1" source="1X2vrrEtw_FdGBczlT2r-9" target="1X2vrrEtw_FdGBczlT2r-5" edge="1">
          <mxGeometry relative="1" as="geometry" />
        </mxCell>
        <mxCell id="1X2vrrEtw_FdGBczlT2r-14" value="" style="endArrow=none;dashed=1;html=1;rounded=0;entryX=0.5;entryY=0;entryDx=0;entryDy=0;exitX=-0.001;exitY=0.156;exitDx=0;exitDy=0;exitPerimeter=0;" parent="1" source="1X2vrrEtw_FdGBczlT2r-5" target="1X2vrrEtw_FdGBczlT2r-5" edge="1">
          <mxGeometry width="50" height="50" relative="1" as="geometry">
            <mxPoint x="190" y="190" as="sourcePoint" />
            <mxPoint x="240" y="140" as="targetPoint" />
            <Array as="points">
              <mxPoint x="240" y="155" />
            </Array>
          </mxGeometry>
        </mxCell>
        <mxCell id="1X2vrrEtw_FdGBczlT2r-15" value="" style="endArrow=none;dashed=1;html=1;rounded=0;exitX=-0.002;exitY=0.656;exitDx=0;exitDy=0;exitPerimeter=0;entryX=-0.001;entryY=0.345;entryDx=0;entryDy=0;entryPerimeter=0;" parent="1" source="1X2vrrEtw_FdGBczlT2r-5" target="1X2vrrEtw_FdGBczlT2r-5" edge="1">
          <mxGeometry width="50" height="50" relative="1" as="geometry">
            <mxPoint x="180" y="210" as="sourcePoint" />
            <mxPoint x="230" y="160" as="targetPoint" />
            <Array as="points">
              <mxPoint x="190" y="235" />
              <mxPoint x="190" y="185" />
            </Array>
          </mxGeometry>
        </mxCell>
        <mxCell id="mOUk1QHmrl1Qx1Awyp1p-2" style="edgeStyle=orthogonalEdgeStyle;rounded=0;orthogonalLoop=1;jettySize=auto;html=1;exitX=0.25;exitY=0;exitDx=0;exitDy=0;entryX=0.25;entryY=1;entryDx=0;entryDy=0;startArrow=classicThin;startFill=1;endArrow=none;endFill=0;" parent="1" source="mOUk1QHmrl1Qx1Awyp1p-1" target="1X2vrrEtw_FdGBczlT2r-5" edge="1">
          <mxGeometry relative="1" as="geometry" />
        </mxCell>
        <mxCell id="mOUk1QHmrl1Qx1Awyp1p-3" style="edgeStyle=orthogonalEdgeStyle;rounded=0;orthogonalLoop=1;jettySize=auto;html=1;exitX=0.75;exitY=0;exitDx=0;exitDy=0;entryX=0.75;entryY=1;entryDx=0;entryDy=0;endArrow=classicThin;endFill=1;" parent="1" source="mOUk1QHmrl1Qx1Awyp1p-1" target="1X2vrrEtw_FdGBczlT2r-5" edge="1">
          <mxGeometry relative="1" as="geometry" />
        </mxCell>
        <mxCell id="mOUk1QHmrl1Qx1Awyp1p-1" value="artist_interpolate" style="rounded=1;whiteSpace=wrap;html=1;fillColor=#dae8fc;strokeColor=#6c8ebf;" parent="1" vertex="1">
          <mxGeometry x="180" y="320" width="120" height="60" as="geometry" />
        </mxCell>
        <mxCell id="mOUk1QHmrl1Qx1Awyp1p-4" value="" style="endArrow=none;dashed=1;html=1;rounded=0;entryX=0.25;entryY=1;entryDx=0;entryDy=0;exitX=-0.001;exitY=0.156;exitDx=0;exitDy=0;exitPerimeter=0;" parent="1" target="1X2vrrEtw_FdGBczlT2r-5" edge="1">
          <mxGeometry width="50" height="50" relative="1" as="geometry">
            <mxPoint x="180" y="265" as="sourcePoint" />
            <mxPoint x="240" y="240" as="targetPoint" />
            <Array as="points">
              <mxPoint x="210" y="265" />
            </Array>
          </mxGeometry>
        </mxCell>
        <mxCell id="B_zwBAlqrdP_tBHMgXyy-1" value="" style="endArrow=none;dashed=1;html=1;dashPattern=1 3;strokeWidth=2;rounded=0;exitX=1;exitY=0.25;exitDx=0;exitDy=0;entryX=1;entryY=0.75;entryDx=0;entryDy=0;" parent="1" source="1X2vrrEtw_FdGBczlT2r-5" edge="1">
          <mxGeometry width="50" height="50" relative="1" as="geometry">
            <mxPoint x="270" y="275" as="sourcePoint" />
            <mxPoint x="300" y="235" as="targetPoint" />
            <Array as="points">
              <mxPoint x="280" y="170" />
              <mxPoint x="280" y="235" />
            </Array>
          </mxGeometry>
        </mxCell>
        <mxCell id="ZRyfYpXTvTUm9nF39cHc-17" value="" style="endArrow=none;dashed=1;html=1;rounded=0;entryX=0.25;entryY=1;entryDx=0;entryDy=0;" edge="1" parent="1">
          <mxGeometry width="50" height="50" relative="1" as="geometry">
            <mxPoint x="300" y="265" as="sourcePoint" />
            <mxPoint x="270" y="290" as="targetPoint" />
            <Array as="points">
              <mxPoint x="270" y="265" />
            </Array>
          </mxGeometry>
        </mxCell>
        <mxCell id="ZRyfYpXTvTUm9nF39cHc-18" value="" style="endArrow=classicThin;html=1;rounded=0;entryX=0;entryY=0.75;entryDx=0;entryDy=0;endFill=1;" edge="1" parent="1" target="ZRyfYpXTvTUm9nF39cHc-1">
          <mxGeometry width="50" height="50" relative="1" as="geometry">
            <mxPoint x="300" y="265" as="sourcePoint" />
            <mxPoint x="305" y="220" as="targetPoint" />
          </mxGeometry>
        </mxCell>
      </root>
    </mxGraphModel>
  </diagram>
  <diagram id="H0xGwl1TKUSqnbxhxI9J" name="AI Model 4">
    <mxGraphModel dx="1050" dy="565" grid="1" gridSize="10" guides="1" tooltips="1" connect="1" arrows="1" fold="1" page="1" pageScale="1" pageWidth="827" pageHeight="1169" math="0" shadow="0">
      <root>
        <mxCell id="0" />
        <mxCell id="1" parent="0" />
      </root>
    </mxGraphModel>
  </diagram>
  <diagram id="cNObQ8330FpxEvSdf82y" name="Model Comparison Processing">
    <mxGraphModel dx="1728" dy="950" grid="1" gridSize="10" guides="1" tooltips="1" connect="1" arrows="1" fold="1" page="1" pageScale="1" pageWidth="827" pageHeight="1169" math="0" shadow="0">
      <root>
        <mxCell id="0" />
        <mxCell id="1" parent="0" />
        <mxCell id="sfgdYU6GOpYzUh5comnq-1" value="" style="shape=corner;direction=west;whiteSpace=wrap;html=0;dx=610;dy=280;fillColor=#F5F5F5;perimeterSpacing=0;rounded=1;arcSize=25;dashed=0;" vertex="1" parent="1">
          <mxGeometry x="160" y="140" width="480" height="280" as="geometry" />
        </mxCell>
        <mxCell id="sfgdYU6GOpYzUh5comnq-4" value="read_EISCAT_data" style="rounded=1;whiteSpace=wrap;html=1;fillColor=#dae8fc;strokeColor=#6c8ebf;" vertex="1" parent="1">
          <mxGeometry x="190" y="170" width="120" height="60" as="geometry" />
        </mxCell>
        <mxCell id="sfgdYU6GOpYzUh5comnq-5" value="data_sorting" style="rounded=1;whiteSpace=wrap;html=1;fillColor=#dae8fc;strokeColor=#6c8ebf;" vertex="1" parent="1">
          <mxGeometry x="190" y="250" width="120" height="60" as="geometry" />
        </mxCell>
        <mxCell id="sfgdYU6GOpYzUh5comnq-6" value="data_filtering" style="rounded=1;whiteSpace=wrap;html=1;fillColor=#dae8fc;strokeColor=#6c8ebf;" vertex="1" parent="1">
          <mxGeometry x="190" y="330" width="120" height="60" as="geometry" />
        </mxCell>
        <mxCell id="sfgdYU6GOpYzUh5comnq-9" value="main_data" style="rounded=1;whiteSpace=wrap;html=1;fillColor=#d5e8d4;strokeColor=#82b366;" vertex="1" parent="1">
          <mxGeometry x="340" y="160" width="120" height="240" as="geometry" />
        </mxCell>
        <mxCell id="sfgdYU6GOpYzUh5comnq-10" value="&lt;span style=&quot;font-size: 14px;&quot;&gt;&lt;b&gt;Model Comparion&lt;/b&gt;&lt;/span&gt;" style="text;html=1;align=center;verticalAlign=middle;resizable=0;points=[];autosize=1;strokeColor=none;fillColor=none;" vertex="1" parent="1">
          <mxGeometry x="499.99975694444436" y="140" width="140" height="30" as="geometry" />
        </mxCell>
        <mxCell id="sfgdYU6GOpYzUh5comnq-11" style="edgeStyle=orthogonalEdgeStyle;rounded=0;orthogonalLoop=1;jettySize=auto;html=1;exitX=0.5;exitY=1;exitDx=0;exitDy=0;strokeWidth=2;" edge="1" parent="1">
          <mxGeometry relative="1" as="geometry">
            <mxPoint x="400" y="160" as="targetPoint" />
            <mxPoint x="400" y="110.00000000000011" as="sourcePoint" />
          </mxGeometry>
        </mxCell>
        <mxCell id="sfgdYU6GOpYzUh5comnq-15" style="edgeStyle=orthogonalEdgeStyle;rounded=0;orthogonalLoop=1;jettySize=auto;html=1;exitX=1;exitY=0.25;exitDx=0;exitDy=0;entryX=0;entryY=0.106;entryDx=0;entryDy=0;entryPerimeter=0;startArrow=classicThin;startFill=1;endArrow=none;endFill=0;" edge="1" parent="1" source="sfgdYU6GOpYzUh5comnq-4" target="sfgdYU6GOpYzUh5comnq-9">
          <mxGeometry relative="1" as="geometry" />
        </mxCell>
        <mxCell id="sfgdYU6GOpYzUh5comnq-16" style="edgeStyle=orthogonalEdgeStyle;rounded=0;orthogonalLoop=1;jettySize=auto;html=1;exitX=1;exitY=0.75;exitDx=0;exitDy=0;entryX=-0.001;entryY=0.232;entryDx=0;entryDy=0;entryPerimeter=0;endArrow=classicThin;endFill=1;" edge="1" parent="1" source="sfgdYU6GOpYzUh5comnq-4" target="sfgdYU6GOpYzUh5comnq-9">
          <mxGeometry relative="1" as="geometry" />
        </mxCell>
        <mxCell id="sfgdYU6GOpYzUh5comnq-17" style="edgeStyle=orthogonalEdgeStyle;rounded=0;orthogonalLoop=1;jettySize=auto;html=1;exitX=1;exitY=0.25;exitDx=0;exitDy=0;entryX=-0.003;entryY=0.439;entryDx=0;entryDy=0;entryPerimeter=0;startArrow=classicThin;startFill=1;endArrow=none;endFill=0;" edge="1" parent="1" source="sfgdYU6GOpYzUh5comnq-5" target="sfgdYU6GOpYzUh5comnq-9">
          <mxGeometry relative="1" as="geometry" />
        </mxCell>
        <mxCell id="sfgdYU6GOpYzUh5comnq-18" style="edgeStyle=orthogonalEdgeStyle;rounded=0;orthogonalLoop=1;jettySize=auto;html=1;exitX=1;exitY=0.75;exitDx=0;exitDy=0;entryX=0.001;entryY=0.565;entryDx=0;entryDy=0;entryPerimeter=0;endArrow=classicThin;endFill=1;" edge="1" parent="1" source="sfgdYU6GOpYzUh5comnq-5" target="sfgdYU6GOpYzUh5comnq-9">
          <mxGeometry relative="1" as="geometry" />
        </mxCell>
        <mxCell id="sfgdYU6GOpYzUh5comnq-19" style="edgeStyle=orthogonalEdgeStyle;rounded=0;orthogonalLoop=1;jettySize=auto;html=1;exitX=1;exitY=0.25;exitDx=0;exitDy=0;entryX=-0.003;entryY=0.773;entryDx=0;entryDy=0;entryPerimeter=0;startArrow=classicThin;startFill=1;endArrow=none;endFill=0;" edge="1" parent="1" source="sfgdYU6GOpYzUh5comnq-6" target="sfgdYU6GOpYzUh5comnq-9">
          <mxGeometry relative="1" as="geometry" />
        </mxCell>
        <mxCell id="sfgdYU6GOpYzUh5comnq-20" style="edgeStyle=orthogonalEdgeStyle;rounded=0;orthogonalLoop=1;jettySize=auto;html=1;exitX=1;exitY=0.75;exitDx=0;exitDy=0;entryX=-0.003;entryY=0.899;entryDx=0;entryDy=0;entryPerimeter=0;endArrow=classicThin;endFill=1;" edge="1" parent="1" source="sfgdYU6GOpYzUh5comnq-6" target="sfgdYU6GOpYzUh5comnq-9">
          <mxGeometry relative="1" as="geometry" />
        </mxCell>
        <mxCell id="sfgdYU6GOpYzUh5comnq-21" style="edgeStyle=orthogonalEdgeStyle;rounded=0;orthogonalLoop=1;jettySize=auto;html=1;exitX=0;exitY=0.75;exitDx=0;exitDy=0;entryX=1.001;entryY=0.893;entryDx=0;entryDy=0;entryPerimeter=0;endArrow=none;endFill=0;startArrow=classicThin;startFill=1;" edge="1" parent="1" target="sfgdYU6GOpYzUh5comnq-9">
          <mxGeometry relative="1" as="geometry">
            <mxPoint x="490" y="375" as="sourcePoint" />
          </mxGeometry>
        </mxCell>
        <mxCell id="sfgdYU6GOpYzUh5comnq-26" value="" style="endArrow=none;dashed=1;html=1;rounded=0;entryX=0.5;entryY=0;entryDx=0;entryDy=0;exitX=0;exitY=0.104;exitDx=0;exitDy=0;exitPerimeter=0;" edge="1" parent="1" source="sfgdYU6GOpYzUh5comnq-9" target="sfgdYU6GOpYzUh5comnq-9">
          <mxGeometry width="50" height="50" relative="1" as="geometry">
            <mxPoint x="370" y="290" as="sourcePoint" />
            <mxPoint x="420" y="240" as="targetPoint" />
            <Array as="points">
              <mxPoint x="400" y="185" />
            </Array>
          </mxGeometry>
        </mxCell>
        <mxCell id="sfgdYU6GOpYzUh5comnq-27" value="" style="endArrow=none;dashed=1;html=1;rounded=0;entryX=0.001;entryY=0.229;entryDx=0;entryDy=0;exitX=0;exitY=0.104;exitDx=0;exitDy=0;exitPerimeter=0;entryPerimeter=0;" edge="1" parent="1" target="sfgdYU6GOpYzUh5comnq-9">
          <mxGeometry width="50" height="50" relative="1" as="geometry">
            <mxPoint x="340" y="265" as="sourcePoint" />
            <mxPoint x="400" y="240" as="targetPoint" />
            <Array as="points">
              <mxPoint x="350" y="265" />
              <mxPoint x="350" y="215" />
            </Array>
          </mxGeometry>
        </mxCell>
        <mxCell id="sfgdYU6GOpYzUh5comnq-28" value="" style="endArrow=none;dashed=1;html=1;rounded=0;entryX=0;entryY=0.563;entryDx=0;entryDy=0;exitX=0;exitY=0.104;exitDx=0;exitDy=0;exitPerimeter=0;entryPerimeter=0;" edge="1" parent="1" target="sfgdYU6GOpYzUh5comnq-9">
          <mxGeometry width="50" height="50" relative="1" as="geometry">
            <mxPoint x="340" y="345" as="sourcePoint" />
            <mxPoint x="400" y="320" as="targetPoint" />
            <Array as="points">
              <mxPoint x="350" y="345" />
              <mxPoint x="350" y="295" />
            </Array>
          </mxGeometry>
        </mxCell>
        <mxCell id="sfgdYU6GOpYzUh5comnq-29" value="" style="endArrow=none;dashed=1;html=1;rounded=0;exitX=-0.003;exitY=0.896;exitDx=0;exitDy=0;exitPerimeter=0;entryX=1;entryY=0.896;entryDx=0;entryDy=0;entryPerimeter=0;" edge="1" parent="1" source="sfgdYU6GOpYzUh5comnq-9" target="sfgdYU6GOpYzUh5comnq-9">
          <mxGeometry width="50" height="50" relative="1" as="geometry">
            <mxPoint x="375" y="370" as="sourcePoint" />
            <mxPoint x="425" y="320" as="targetPoint" />
          </mxGeometry>
        </mxCell>
        <mxCell id="sfgdYU6GOpYzUh5comnq-32" value="" style="endArrow=none;html=1;rounded=0;endFill=0;strokeWidth=2;" edge="1" parent="1">
          <mxGeometry width="50" height="50" relative="1" as="geometry">
            <mxPoint x="320" y="80" as="sourcePoint" />
            <mxPoint x="400" y="110" as="targetPoint" />
            <Array as="points">
              <mxPoint x="320" y="110" />
            </Array>
          </mxGeometry>
        </mxCell>
        <mxCell id="sfgdYU6GOpYzUh5comnq-33" value="" style="endArrow=none;html=1;rounded=0;strokeWidth=2;" edge="1" parent="1">
          <mxGeometry width="50" height="50" relative="1" as="geometry">
            <mxPoint x="400" y="80" as="sourcePoint" />
            <mxPoint x="400" y="110" as="targetPoint" />
          </mxGeometry>
        </mxCell>
        <mxCell id="sfgdYU6GOpYzUh5comnq-34" value="" style="endArrow=none;html=1;rounded=0;strokeWidth=2;" edge="1" parent="1">
          <mxGeometry width="50" height="50" relative="1" as="geometry">
            <mxPoint x="480" y="80" as="sourcePoint" />
            <mxPoint x="400" y="110" as="targetPoint" />
            <Array as="points">
              <mxPoint x="480" y="110" />
            </Array>
          </mxGeometry>
        </mxCell>
      </root>
    </mxGraphModel>
  </diagram>
</mxfile>
